<svg width="43" height="37" viewBox="0 0 43 37" fill="none" xmlns="http://www.w3.org/2000/svg">
<path d="M14.45 36.25C11.7833 36.25 9.41667 35.5333 7.35 34.1C5.28333 32.6667 3.66667 30.6333 2.5 28C1.33333 25.3333 0.75 22.1667 0.75 18.5C0.75 14.8333 1.33333 11.6833 2.5 9.05C3.66667 6.38333 5.28333 4.33333 7.35 2.9C9.41667 1.46666 11.7833 0.749998 14.45 0.749998C17.15 0.749998 19.5167 1.46666 21.55 2.9C23.6167 4.33333 25.2333 6.38333 26.4 9.05C27.5667 11.6833 28.15 14.8333 28.15 18.5C28.15 22.1667 27.5667 25.3333 26.4 28C25.2333 30.6333 23.6167 32.6667 21.55 34.1C19.5167 35.5333 17.15 36.25 14.45 36.25ZM14.45 33.9C16.6833 33.9 18.6333 33.3 20.3 32.1C21.9667 30.8667 23.2667 29.1 24.2 26.8C25.1333 24.5 25.6 21.7333 25.6 18.5C25.6 15.2333 25.1333 12.4667 24.2 10.2C23.2667 7.9 21.9667 6.15 20.3 4.95C18.6333 3.71666 16.6833 3.1 14.45 3.1C12.25 3.1 10.3 3.71666 8.6 4.95C6.93333 6.15 5.63333 7.9 4.7 10.2C3.76667 12.4667 3.3 15.2333 3.3 18.5C3.3 21.7333 3.76667 24.5 4.7 26.8C5.63333 29.1 6.93333 30.8667 8.6 32.1C10.3 33.3 12.25 33.9 14.45 33.9ZM39.9102 36V2.1L41.0602 3.3H31.3602V0.999998H42.4602V36H39.9102Z" fill="#333333"/>
</svg>
