<svg width="43" height="41" viewBox="0 0 43 41" fill="none" xmlns="http://www.w3.org/2000/svg">
<path d="M29.3828 26.2938C28.4114 26.2938 27.6211 25.6098 27.6211 24.769C27.6211 23.9282 28.4114 23.2442 29.3828 23.2442C30.3542 23.2442 31.1445 23.9282 31.1445 24.769C31.1445 25.2112 31.5031 25.5698 31.9453 25.5698C32.3875 25.5698 32.7461 25.2112 32.7461 24.769C32.7461 23.3016 31.6527 22.0678 30.1836 21.7329V21.3164C30.1836 20.8742 29.825 20.5156 29.3828 20.5156C28.9406 20.5156 28.582 20.8742 28.582 21.3164V21.7329C27.1129 22.0678 26.0195 23.3016 26.0195 24.769C26.0195 26.4929 27.5283 27.8954 29.3828 27.8954C30.3542 27.8954 31.1445 28.5794 31.1445 29.4202C31.1445 30.261 30.3542 30.9451 29.3828 30.9451C28.4114 30.9451 27.6211 30.261 27.6211 29.4202C27.6211 28.978 27.2625 28.6194 26.8203 28.6194C26.3781 28.6194 26.0195 28.978 26.0195 29.4202C26.0195 30.8876 27.1129 32.1215 28.582 32.4564V32.8023C28.582 33.2445 28.9406 33.6031 29.3828 33.6031C29.825 33.6031 30.1836 33.2445 30.1836 32.8023V32.4564C31.6527 32.1215 32.7461 30.8876 32.7461 29.4202C32.7461 27.6963 31.2373 26.2938 29.3828 26.2938Z" fill="white"/>
<path d="M38.154 21.5307C37.108 19.9007 35.6342 18.5964 33.8921 17.759C33.4934 17.5673 33.0149 17.7351 32.8234 18.1337C32.6318 18.5324 32.7995 19.0108 33.1982 19.2024C36.234 20.6617 38.1955 23.7799 38.1955 27.1462C38.1955 28.5867 37.8404 30.0152 37.1688 31.2775C36.9611 31.6679 37.1092 32.1528 37.4996 32.3606C37.6194 32.4243 37.7482 32.4546 37.875 32.4546C38.1616 32.4546 38.4387 32.3004 38.5827 32.0298C39.3771 30.5368 39.7971 28.848 39.7971 27.1462C39.7971 25.1475 39.2289 23.2056 38.154 21.5307Z" fill="white"/>
<path d="M30.6418 16.7364L30.5879 16.7363C30.1457 16.7363 29.7871 17.0948 29.7871 17.5371C29.7871 17.9794 30.1457 18.3379 30.5879 18.3379L30.6343 18.338C30.6355 18.338 30.6367 18.338 30.6381 18.338C31.0786 18.338 31.4367 17.9819 31.4388 17.5409C31.4408 17.0987 31.084 16.7385 30.6418 16.7364Z" fill="white"/>
<path d="M25.5754 35.0901C22.5396 33.6306 20.5781 30.5125 20.5781 27.1462C20.5781 25.7058 20.9332 24.2773 21.6048 23.0149C21.8125 22.6246 21.6645 22.1396 21.274 21.9319C20.8837 21.7242 20.3986 21.8722 20.1909 22.2627C19.3965 23.7557 18.9766 25.4444 18.9766 27.1462C18.9766 29.145 19.5447 31.0867 20.6196 32.7617C21.6657 34.3917 23.1394 35.696 24.8815 36.5335C24.9934 36.5874 25.1116 36.6127 25.2279 36.6127C25.5261 36.6127 25.8123 36.4455 25.9502 36.1588C26.1417 35.7601 25.974 35.2817 25.5754 35.0901Z" fill="white"/>
<path d="M28.1857 35.9552L28.1394 35.9551C27.6951 35.9543 27.337 36.3097 27.335 36.7521C27.3329 37.1944 27.6899 37.5546 28.1321 37.5567L28.1857 37.5568C28.6279 37.5568 28.9865 37.1982 28.9865 36.756C28.9865 36.3138 28.6279 35.9552 28.1857 35.9552Z" fill="white"/>
<path d="M33.0229 14.0271C32.9255 13.7949 32.8061 13.576 32.6671 13.373H34.7519C36.783 13.373 38.4355 11.7205 38.4355 9.68944C38.4355 7.65834 36.783 6.00585 34.7519 6.00585H28.3392C28.7469 5.41311 28.9863 4.69601 28.9863 3.92382C28.9863 1.89272 27.3338 0.240234 25.3027 0.240234H5.68359C3.65249 0.240234 2 1.89272 2 3.92382C2 5.95492 3.65249 7.60741 5.68359 7.60741H12.0962C11.6886 8.20015 11.4492 8.91724 11.4492 9.68944C11.4492 10.4616 11.6885 11.1787 12.0962 11.7715H10.0078C7.9767 11.7715 6.32421 13.424 6.32421 15.455C6.32421 16.6215 6.86986 17.6625 7.71877 18.3379C6.86986 19.0132 6.32421 20.0542 6.32421 21.2207C6.32421 22.3872 6.86986 23.4281 7.71877 24.1035C6.86986 24.7788 6.32421 25.8198 6.32421 26.9863C6.32421 28.1528 6.86986 29.1937 7.71877 29.8691C6.86986 30.5445 6.32421 31.5854 6.32421 32.7519C6.32421 34.783 7.9767 36.4355 10.0078 36.4355H19.445C21.9311 39.0946 25.4678 40.7598 29.3867 40.7598C36.8931 40.7598 43 34.6529 43 27.1465C43 20.8991 38.7695 15.6219 33.0229 14.0271ZM34.7519 7.60741C35.9 7.60741 36.8339 8.54144 36.8339 9.68944C36.8339 10.8374 35.9 11.7715 34.7519 11.7715H29.6269H15.1328C13.9847 11.7715 13.0508 10.8374 13.0508 9.68944C13.0508 8.54144 13.9847 7.60741 15.1328 7.60741H34.7519ZM5.68359 6.00585C4.53551 6.00585 3.60156 5.07182 3.60156 3.92382C3.60156 2.77582 4.53551 1.84179 5.68359 1.84179H25.3027C26.4508 1.84179 27.3847 2.77582 27.3847 3.92382C27.3847 5.07182 26.4508 6.00585 25.3027 6.00585H5.68359ZM10.0078 13.373H29.6269C29.9495 13.373 30.2583 13.448 30.5354 13.5822C30.1566 13.5504 29.7737 13.5333 29.3867 13.5333C25.6275 13.5333 22.2194 15.0651 19.7534 17.5371H10.0078C8.8598 17.5371 7.92577 16.603 7.92577 15.455C7.92577 14.3071 8.8598 13.373 10.0078 13.373ZM10.0078 19.1386H18.3852C17.4761 20.3841 16.7733 21.7888 16.3269 23.3027H10.0078C8.85972 23.3027 7.92577 22.3687 7.92577 21.2207C7.92577 20.0727 8.85972 19.1386 10.0078 19.1386ZM10.0078 24.9043H15.9592C15.8377 25.634 15.7735 26.3828 15.7735 27.1465C15.7735 27.7988 15.8207 28.4403 15.9098 29.0683H10.0078C8.85972 29.0683 7.92577 28.1344 7.92577 26.9863C7.92577 25.8382 8.85972 24.9043 10.0078 24.9043ZM10.0078 34.8339C8.85972 34.8339 7.92577 33.9 7.92577 32.7519C7.92577 31.6038 8.85972 30.6699 10.0078 30.6699H16.2367C16.6408 32.1764 17.2972 33.5804 18.1581 34.8339H10.0078ZM29.3867 39.1582C22.7635 39.1582 17.3751 33.7698 17.3751 27.1465C17.3751 20.5233 22.7635 15.1348 29.3867 15.1348C36.01 15.1348 41.3984 20.5233 41.3984 27.1465C41.3984 33.7698 36.01 39.1582 29.3867 39.1582Z" fill="white"/>
<path d="M27.3828 26.2938C26.4114 26.2938 25.6211 25.6098 25.6211 24.769C25.6211 23.9282 26.4114 23.2442 27.3828 23.2442C28.3542 23.2442 29.1445 23.9282 29.1445 24.769C29.1445 25.2112 29.5031 25.5698 29.9453 25.5698C30.3875 25.5698 30.7461 25.2112 30.7461 24.769C30.7461 23.3016 29.6527 22.0678 28.1836 21.7329V21.3164C28.1836 20.8742 27.825 20.5156 27.3828 20.5156C26.9406 20.5156 26.582 20.8742 26.582 21.3164V21.7329C25.1129 22.0678 24.0195 23.3016 24.0195 24.769C24.0195 26.4929 25.5283 27.8954 27.3828 27.8954C28.3542 27.8954 29.1445 28.5794 29.1445 29.4202C29.1445 30.261 28.3542 30.9451 27.3828 30.9451C26.4114 30.9451 25.6211 30.261 25.6211 29.4202C25.6211 28.978 25.2625 28.6194 24.8203 28.6194C24.3781 28.6194 24.0195 28.978 24.0195 29.4202C24.0195 30.8876 25.1129 32.1215 26.582 32.4564V32.8023C26.582 33.2445 26.9406 33.6031 27.3828 33.6031C27.825 33.6031 28.1836 33.2445 28.1836 32.8023V32.4564C29.6527 32.1215 30.7461 30.8876 30.7461 29.4202C30.7461 27.6963 29.2373 26.2938 27.3828 26.2938Z" fill="#333333"/>
<path d="M36.154 21.5307C35.108 19.9007 33.6342 18.5964 31.8921 17.759C31.4934 17.5673 31.0149 17.7351 30.8234 18.1337C30.6318 18.5324 30.7995 19.0108 31.1982 19.2024C34.234 20.6617 36.1955 23.7799 36.1955 27.1462C36.1955 28.5867 35.8404 30.0152 35.1688 31.2775C34.9611 31.6679 35.1092 32.1528 35.4996 32.3606C35.6194 32.4243 35.7482 32.4546 35.875 32.4546C36.1616 32.4546 36.4387 32.3004 36.5827 32.0298C37.3771 30.5368 37.7971 28.848 37.7971 27.1462C37.7971 25.1475 37.2289 23.2056 36.154 21.5307Z" fill="#333333"/>
<path d="M28.6418 16.7364L28.5879 16.7363C28.1457 16.7363 27.7871 17.0948 27.7871 17.5371C27.7871 17.9794 28.1457 18.3379 28.5879 18.3379L28.6343 18.338C28.6355 18.338 28.6367 18.338 28.6381 18.338C29.0786 18.338 29.4367 17.9819 29.4388 17.5409C29.4408 17.0987 29.084 16.7385 28.6418 16.7364Z" fill="#333333"/>
<path d="M23.5754 35.0901C20.5396 33.6306 18.5781 30.5125 18.5781 27.1462C18.5781 25.7058 18.9332 24.2773 19.6048 23.0149C19.8125 22.6246 19.6645 22.1396 19.274 21.9319C18.8837 21.7242 18.3986 21.8722 18.1909 22.2627C17.3965 23.7557 16.9766 25.4444 16.9766 27.1462C16.9766 29.145 17.5447 31.0867 18.6196 32.7617C19.6657 34.3917 21.1394 35.696 22.8815 36.5335C22.9934 36.5874 23.1116 36.6127 23.2279 36.6127C23.5261 36.6127 23.8123 36.4455 23.9502 36.1588C24.1417 35.7601 23.974 35.2817 23.5754 35.0901Z" fill="#333333"/>
<path d="M26.1857 35.9552L26.1394 35.9551C25.6951 35.9543 25.337 36.3097 25.335 36.7521C25.3329 37.1944 25.6899 37.5546 26.1321 37.5567L26.1857 37.5568C26.6279 37.5568 26.9865 37.1982 26.9865 36.756C26.9865 36.3138 26.6279 35.9552 26.1857 35.9552Z" fill="#333333"/>
<path d="M31.0229 14.0271C30.9255 13.7949 30.8061 13.576 30.6671 13.373H32.7519C34.783 13.373 36.4355 11.7205 36.4355 9.68944C36.4355 7.65834 34.783 6.00585 32.7519 6.00585H26.3392C26.7469 5.41311 26.9863 4.69601 26.9863 3.92382C26.9863 1.89272 25.3338 0.240234 23.3027 0.240234H3.68359C1.65249 0.240234 0 1.89272 0 3.92382C0 5.95492 1.65249 7.60741 3.68359 7.60741H10.0962C9.68855 8.20015 9.4492 8.91724 9.4492 9.68944C9.4492 10.4616 9.68847 11.1787 10.0962 11.7715H8.0078C5.9767 11.7715 4.32421 13.424 4.32421 15.455C4.32421 16.6215 4.86986 17.6625 5.71877 18.3379C4.86986 19.0132 4.32421 20.0542 4.32421 21.2207C4.32421 22.3872 4.86986 23.4281 5.71877 24.1035C4.86986 24.7788 4.32421 25.8198 4.32421 26.9863C4.32421 28.1528 4.86986 29.1937 5.71877 29.8691C4.86986 30.5445 4.32421 31.5854 4.32421 32.7519C4.32421 34.783 5.9767 36.4355 8.0078 36.4355H17.445C19.9311 39.0946 23.4678 40.7598 27.3867 40.7598C34.8931 40.7598 41 34.6529 41 27.1465C41 20.8991 36.7695 15.6219 31.0229 14.0271ZM32.7519 7.60741C33.9 7.60741 34.8339 8.54144 34.8339 9.68944C34.8339 10.8374 33.9 11.7715 32.7519 11.7715H27.6269H13.1328C11.9847 11.7715 11.0508 10.8374 11.0508 9.68944C11.0508 8.54144 11.9847 7.60741 13.1328 7.60741H32.7519ZM3.68359 6.00585C2.53551 6.00585 1.60156 5.07182 1.60156 3.92382C1.60156 2.77582 2.53551 1.84179 3.68359 1.84179H23.3027C24.4508 1.84179 25.3847 2.77582 25.3847 3.92382C25.3847 5.07182 24.4508 6.00585 23.3027 6.00585H3.68359ZM8.0078 13.373H27.6269C27.9495 13.373 28.2583 13.448 28.5354 13.5822C28.1566 13.5504 27.7737 13.5333 27.3867 13.5333C23.6275 13.5333 20.2194 15.0651 17.7534 17.5371H8.0078C6.8598 17.5371 5.92577 16.603 5.92577 15.455C5.92577 14.3071 6.8598 13.373 8.0078 13.373ZM8.0078 19.1386H16.3852C15.4761 20.3841 14.7733 21.7888 14.3269 23.3027H8.0078C6.85972 23.3027 5.92577 22.3687 5.92577 21.2207C5.92577 20.0727 6.85972 19.1386 8.0078 19.1386ZM8.0078 24.9043H13.9592C13.8377 25.634 13.7735 26.3828 13.7735 27.1465C13.7735 27.7988 13.8207 28.4403 13.9098 29.0683H8.0078C6.85972 29.0683 5.92577 28.1344 5.92577 26.9863C5.92577 25.8382 6.85972 24.9043 8.0078 24.9043ZM8.0078 34.8339C6.85972 34.8339 5.92577 33.9 5.92577 32.7519C5.92577 31.6038 6.85972 30.6699 8.0078 30.6699H14.2367C14.6408 32.1764 15.2972 33.5804 16.1581 34.8339H8.0078ZM27.3867 39.1582C20.7635 39.1582 15.3751 33.7698 15.3751 27.1465C15.3751 20.5233 20.7635 15.1348 27.3867 15.1348C34.01 15.1348 39.3984 20.5233 39.3984 27.1465C39.3984 33.7698 34.01 39.1582 27.3867 39.1582Z" fill="#333333"/>
</svg>
