<svg width="42" height="38" viewBox="0 0 42 38" fill="none" xmlns="http://www.w3.org/2000/svg">
<path d="M36.033 11.1695C36.0229 11.1195 36.008 11.0703 35.9885 11.0227C35.9689 10.9758 35.9447 10.9305 35.9166 10.8883C35.8877 10.8453 35.8557 10.8055 35.8189 10.7695C35.7829 10.7336 35.7432 10.7008 35.7001 10.6727C35.6579 10.6445 35.6127 10.6203 35.5657 10.6008C35.5189 10.5813 35.4697 10.5656 35.4196 10.5563C35.3189 10.5359 35.215 10.5359 35.1142 10.5563C35.0642 10.5656 35.015 10.5813 34.9682 10.6008C34.9213 10.6203 34.876 10.6438 34.833 10.6727C34.7907 10.7008 34.7502 10.7336 34.7143 10.7695C34.6783 10.8055 34.6454 10.8453 34.6174 10.8883C34.5892 10.9305 34.565 10.9758 34.5455 11.0227C34.526 11.0703 34.5111 11.1195 34.501 11.1695C34.4908 11.2195 34.4854 11.2711 34.4854 11.3219C34.4854 11.3727 34.4908 11.4242 34.501 11.4742C34.5111 11.5242 34.526 11.5734 34.5455 11.6203C34.565 11.668 34.5893 11.7133 34.6174 11.7555C34.6454 11.7984 34.6783 11.8383 34.7143 11.8742C34.7502 11.9102 34.7908 11.943 34.833 11.9711C34.8759 11.9992 34.9212 12.0234 34.9682 12.043C35.015 12.0625 35.0642 12.0774 35.1142 12.0875C35.165 12.0977 35.2158 12.1031 35.2665 12.1031C35.4728 12.1031 35.6736 12.0195 35.8189 11.8742C35.8557 11.8383 35.8877 11.7984 35.9166 11.7555C35.9447 11.7133 35.9689 11.668 35.9885 11.6203C36.008 11.5734 36.0229 11.5242 36.033 11.4742C36.0432 11.4242 36.0479 11.3727 36.0479 11.3219C36.0479 11.2711 36.0432 11.2195 36.033 11.1695Z" fill="white"/>
<path d="M41.2188 0.109375H2.78125C2.34977 0.109375 2 0.459141 2 0.890625V7.64469C2 8.07617 2.34977 8.42594 2.78125 8.42594H3.8757V37.1112C3.8757 37.5427 4.22547 37.8925 4.65695 37.8925H39.343C39.7745 37.8925 40.1243 37.5427 40.1243 37.1112V8.42594H41.2188C41.6502 8.42594 42 8.07617 42 7.64469V0.890625C42 0.459141 41.6502 0.109375 41.2188 0.109375ZM16.8502 1.67187H27.1498V6.86344H16.8502V1.67187ZM16.8502 8.42594H27.1498V18.6318L25.4091 17.4244C25.1413 17.2387 24.7864 17.2387 24.5187 17.4243L22 19.1705L19.4812 17.4242C19.3473 17.3314 19.1917 17.285 19.0361 17.285C18.8804 17.285 18.7247 17.3315 18.5908 17.4243L16.8502 18.6317V8.42594ZM3.5625 6.86344V1.67187H15.2877V6.86344H3.5625ZM15.2877 8.42594V10.54H5.4382V8.42594H15.2877ZM23.2149 22.5458V36.33H5.4382V12.1024H15.2877V20.1245C15.2877 20.4152 15.4491 20.6818 15.7067 20.8166C15.9643 20.9515 16.2755 20.9321 16.5143 20.7664L19.0362 19.017L21.5548 20.7632C21.8226 20.9488 22.1774 20.9488 22.4451 20.7632L24.9638 19.017L27.4857 20.7664C27.6189 20.8588 27.7746 20.9057 27.931 20.9057C28.0549 20.9057 28.1794 20.8762 28.2932 20.8166C28.5508 20.6818 28.7122 20.4152 28.7122 20.1245V12.1024H32.1389C32.5703 12.1024 32.9202 11.7527 32.9202 11.3212C32.9202 10.8897 32.5703 10.5399 32.1389 10.5399H28.7122V8.42586H38.5617V21.7645H23.9962C23.5648 21.7645 23.2149 22.1143 23.2149 22.5458ZM38.5618 36.33H24.7774V23.327H38.5618V36.33ZM40.4375 6.86344H28.7123V1.67187H40.4375V6.86344Z" fill="white"/>
<path d="M37.2027 28.1541C37.0269 26.4153 35.6162 25.1074 33.9107 25.1074C33.0809 25.1074 32.3285 25.4412 31.7592 26.0356C31.1434 25.4612 30.3096 25.1074 29.4642 25.1074C27.7736 25.1074 26.4734 26.3589 26.2939 28.1544C26.2705 28.3133 26.2364 28.7344 26.3904 29.3545C26.6232 30.2912 27.1571 31.1401 27.9402 31.8141L31.1962 34.5614C31.3542 34.6959 31.5512 34.7632 31.7482 34.7632C31.945 34.7632 32.1418 34.6962 32.2998 34.5619L35.5619 31.8093C36.3393 31.1408 36.8731 30.2919 37.1061 29.3545C37.2603 28.7341 37.226 28.3128 37.2027 28.1541ZM35.5896 28.9777C35.4353 29.5991 35.0734 30.1685 34.5486 30.6199L31.7482 32.9829L28.9536 30.6248C28.423 30.1681 28.0611 29.5986 27.9068 28.9778C27.8253 28.6492 27.8339 28.4473 27.838 28.3969C27.8458 28.3662 27.8432 28.3662 27.847 28.3261C27.9242 27.5016 28.4541 26.6698 29.4641 26.6698C30.1318 26.6698 30.8097 27.1043 31.0758 27.7029C31.2013 27.9849 31.481 28.1667 31.7897 28.1667C31.7897 28.1667 31.7898 28.1667 31.7899 28.1667C32.0986 28.1666 32.3784 27.9848 32.5037 27.7027C32.6751 27.317 33.0857 26.6698 33.9107 26.6698C34.8284 26.6698 35.5597 27.3664 35.6496 28.3262C35.6533 28.3662 35.6506 28.3662 35.6585 28.3969C35.6626 28.4473 35.6713 28.6492 35.5896 28.9777Z" fill="white"/>
<path d="M34.033 11.1695C34.0229 11.1195 34.008 11.0703 33.9885 11.0227C33.9689 10.9758 33.9447 10.9305 33.9166 10.8883C33.8877 10.8453 33.8557 10.8055 33.8189 10.7695C33.7829 10.7336 33.7432 10.7008 33.7001 10.6727C33.6579 10.6445 33.6127 10.6203 33.5657 10.6008C33.5189 10.5813 33.4697 10.5656 33.4196 10.5563C33.3189 10.5359 33.215 10.5359 33.1142 10.5563C33.0642 10.5656 33.015 10.5813 32.9682 10.6008C32.9213 10.6203 32.876 10.6438 32.833 10.6727C32.7907 10.7008 32.7502 10.7336 32.7143 10.7695C32.6783 10.8055 32.6454 10.8453 32.6174 10.8883C32.5892 10.9305 32.565 10.9758 32.5455 11.0227C32.526 11.0703 32.5111 11.1195 32.501 11.1695C32.4908 11.2195 32.4854 11.2711 32.4854 11.3219C32.4854 11.3727 32.4908 11.4242 32.501 11.4742C32.5111 11.5242 32.526 11.5734 32.5455 11.6203C32.565 11.668 32.5893 11.7133 32.6174 11.7555C32.6454 11.7984 32.6783 11.8383 32.7143 11.8742C32.7502 11.9102 32.7908 11.943 32.833 11.9711C32.8759 11.9992 32.9212 12.0234 32.9682 12.043C33.015 12.0625 33.0642 12.0774 33.1142 12.0875C33.165 12.0977 33.2158 12.1031 33.2665 12.1031C33.4728 12.1031 33.6736 12.0195 33.8189 11.8742C33.8557 11.8383 33.8877 11.7984 33.9166 11.7555C33.9447 11.7133 33.9689 11.668 33.9885 11.6203C34.008 11.5734 34.0229 11.5242 34.033 11.4742C34.0432 11.4242 34.0479 11.3727 34.0479 11.3219C34.0479 11.2711 34.0432 11.2195 34.033 11.1695Z" fill="#333333"/>
<path d="M39.2188 0.109375H0.78125C0.349766 0.109375 0 0.459141 0 0.890625V7.64469C0 8.07617 0.349766 8.42594 0.78125 8.42594H1.8757V37.1112C1.8757 37.5427 2.22547 37.8925 2.65695 37.8925H37.343C37.7745 37.8925 38.1243 37.5427 38.1243 37.1112V8.42594H39.2188C39.6502 8.42594 40 8.07617 40 7.64469V0.890625C40 0.459141 39.6502 0.109375 39.2188 0.109375ZM14.8502 1.67187H25.1498V6.86344H14.8502V1.67187ZM14.8502 8.42594H25.1498V18.6318L23.4091 17.4244C23.1413 17.2387 22.7864 17.2387 22.5187 17.4243L20 19.1705L17.4812 17.4242C17.3473 17.3314 17.1917 17.285 17.0361 17.285C16.8804 17.285 16.7247 17.3315 16.5908 17.4243L14.8502 18.6317V8.42594ZM1.5625 6.86344V1.67187H13.2877V6.86344H1.5625ZM13.2877 8.42594V10.54H3.4382V8.42594H13.2877ZM21.2149 22.5458V36.33H3.4382V12.1024H13.2877V20.1245C13.2877 20.4152 13.4491 20.6818 13.7067 20.8166C13.9643 20.9515 14.2755 20.9321 14.5143 20.7664L17.0362 19.017L19.5548 20.7632C19.8226 20.9488 20.1774 20.9488 20.4451 20.7632L22.9638 19.017L25.4857 20.7664C25.6189 20.8588 25.7746 20.9057 25.931 20.9057C26.0549 20.9057 26.1794 20.8762 26.2932 20.8166C26.5508 20.6818 26.7122 20.4152 26.7122 20.1245V12.1024H30.1389C30.5703 12.1024 30.9202 11.7527 30.9202 11.3212C30.9202 10.8897 30.5703 10.5399 30.1389 10.5399H26.7122V8.42586H36.5617V21.7645H21.9962C21.5648 21.7645 21.2149 22.1143 21.2149 22.5458ZM36.5618 36.33H22.7774V23.327H36.5618V36.33ZM38.4375 6.86344H26.7123V1.67187H38.4375V6.86344Z" fill="#333333"/>
<path d="M35.2027 28.1541C35.0269 26.4153 33.6162 25.1074 31.9107 25.1074C31.0809 25.1074 30.3285 25.4412 29.7592 26.0356C29.1434 25.4612 28.3096 25.1074 27.4642 25.1074C25.7736 25.1074 24.4734 26.3589 24.2939 28.1544C24.2705 28.3133 24.2364 28.7344 24.3904 29.3545C24.6232 30.2912 25.1571 31.1401 25.9402 31.8141L29.1962 34.5614C29.3542 34.6959 29.5512 34.7632 29.7482 34.7632C29.945 34.7632 30.1418 34.6962 30.2998 34.5619L33.5619 31.8093C34.3393 31.1408 34.8731 30.2919 35.1061 29.3545C35.2603 28.7341 35.226 28.3128 35.2027 28.1541ZM33.5896 28.9777C33.4353 29.5991 33.0734 30.1685 32.5486 30.6199L29.7482 32.9829L26.9536 30.6248C26.423 30.1681 26.0611 29.5986 25.9068 28.9778C25.8253 28.6492 25.8339 28.4473 25.838 28.3969C25.8458 28.3662 25.8432 28.3662 25.847 28.3261C25.9242 27.5016 26.4541 26.6698 27.4641 26.6698C28.1318 26.6698 28.8097 27.1043 29.0758 27.7029C29.2013 27.9849 29.481 28.1667 29.7897 28.1667C29.7897 28.1667 29.7898 28.1667 29.7899 28.1667C30.0986 28.1666 30.3784 27.9848 30.5037 27.7027C30.6751 27.317 31.0857 26.6698 31.9107 26.6698C32.8284 26.6698 33.5597 27.3664 33.6496 28.3262C33.6533 28.3662 33.6506 28.3662 33.6585 28.3969C33.6626 28.4473 33.6713 28.6492 33.5896 28.9777Z" fill="#333333"/>
</svg>
