<svg width="52" height="39" viewBox="0 0 52 39" fill="none" xmlns="http://www.w3.org/2000/svg">
<path d="M44.2018 32.9347C44.2018 35.7948 42.4683 38.135 40.3016 38.135C38.1348 38.135 36.4014 35.7948 36.4014 32.9347C36.4014 30.0745 38.1348 27.7344 40.3016 27.7344C42.4683 27.7344 44.2018 30.0745 44.2018 32.9347Z" fill="#FECC00"/>
<path d="M13.0875 32.9347C13.0875 35.7948 11.3541 38.135 9.18733 38.135C7.02057 38.135 5.28711 35.7948 5.28711 32.9347C5.28711 30.0745 7.02057 27.7344 9.18733 27.7344C11.3541 27.7344 13.0875 30.0745 13.0875 32.9347Z" fill="#FECC00"/>
<path d="M50.2694 16.4682H45.0691L37.8754 8.49435C37.5287 8.06096 36.9219 7.80094 36.4019 7.80094H26.868V3.3807C26.868 1.99398 25.7413 0.867188 24.3545 0.867188H5.9803C4.59359 0.867188 3.4668 1.99388 3.4668 3.3807V22.5351H26.8681V32.9357H36.402C36.402 30.0756 38.7421 27.7354 41.6023 27.7354C44.4625 27.7354 46.8026 30.0756 46.8026 32.9357H50.0094C50.6161 32.9357 51.1361 32.4157 51.1361 31.809V18.1149C51.1362 17.5949 50.6162 16.8148 50.2694 16.4682Z" fill="#FED100"/>
<path d="M27.7349 23.4013H0V3.38019C0 1.47345 1.47345 0 3.38019 0H24.4414C26.2615 0 27.7349 1.47345 27.7349 3.38019V23.4013ZM1.73346 21.6678H26.0014V3.38019C26.0014 2.51351 25.308 1.73346 24.3547 1.73346H3.38019C2.42677 1.73346 1.73346 2.42687 1.73346 3.38019V21.6678Z" fill="#333333"/>
<path d="M41.6021 39.0011C38.2219 39.0011 35.5352 36.3143 35.5352 32.9342C35.5352 29.554 38.2219 26.8672 41.6021 26.8672C44.9823 26.8672 47.6691 29.554 47.6691 32.9342C47.6691 36.3143 44.9823 39.0011 41.6021 39.0011ZM41.6021 28.6006C39.1754 28.6006 37.2685 30.5073 37.2685 32.9342C37.2685 35.361 39.1753 37.2678 41.6021 37.2678C44.0289 37.2678 45.9357 35.361 45.9357 32.9342C45.9357 30.5073 44.0289 28.6006 41.6021 28.6006Z" fill="#333333"/>
<path d="M10.401 39.0011C7.02077 39.0011 4.33398 36.3143 4.33398 32.9342C4.33398 29.554 7.02077 26.8672 10.401 26.8672C13.7811 26.8672 16.4679 29.554 16.4679 32.9342C16.4679 36.3143 13.7811 39.0011 10.401 39.0011ZM10.401 28.6006C7.97419 28.6006 6.06735 30.5073 6.06735 32.9342C6.06735 35.361 7.97409 37.2678 10.401 37.2678C12.8278 37.2678 14.7346 35.361 14.7346 32.9342C14.7346 30.5073 12.8277 28.6006 10.401 28.6006Z" fill="#333333"/>
<path d="M50.7034 23.4013H35.9692C35.4492 23.4013 35.1025 23.0547 35.1025 22.5346C35.1025 22.0146 35.4492 21.668 35.9692 21.668H50.7034C51.2234 21.668 51.5701 22.0146 51.5701 22.5346C51.5701 23.0546 51.2234 23.4013 50.7034 23.4013Z" fill="#333333"/>
<path d="M13.8674 15.6005H0.866681C0.346652 15.6005 0 15.2539 0 14.7339C0 14.2138 0.346652 13.8672 0.866681 13.8672H13.8674C14.3874 13.8672 14.7341 14.2138 14.7341 14.7339C14.7342 15.2538 14.3874 15.6005 13.8674 15.6005Z" fill="#333333"/>
<path d="M10.4006 11.2666H0.866681C0.346652 11.2666 0 10.9199 0 10.3999C0 9.87986 0.346652 9.5332 0.866681 9.5332H10.4006C10.9206 9.5332 11.2673 9.87986 11.2673 10.3999C11.2673 10.9199 10.9206 11.2666 10.4006 11.2666Z" fill="#333333"/>
<path d="M49.2289 33.8018H45.9354V32.9351C45.9354 30.5084 44.0286 28.6015 41.6017 28.6015C39.175 28.6015 37.2681 30.5083 37.2681 32.9351V33.8018H26.001V6.93359H36.6616C37.875 6.93359 38.9151 7.45362 39.6951 8.40704L45.4154 15.6008L45.5021 15.6874H49.1423C50.7024 15.6874 51.9158 16.9875 51.9158 18.461V31.0283C52.0024 32.5018 50.7024 33.8018 49.2289 33.8018ZM47.5822 32.0684H49.1423C49.7489 32.0684 50.1823 31.5483 50.1823 30.9417V18.461C50.1823 17.8543 49.6623 17.4209 49.1423 17.4209H45.5021C44.8954 17.4209 44.3754 17.1609 44.0286 16.7275L38.3083 9.53374C37.9616 8.92707 37.3549 8.66706 36.6616 8.66706H27.7344V32.0684H35.6215C36.0549 29.1216 38.5683 26.8681 41.6019 26.8681C44.6354 26.8681 47.1488 29.1216 47.5822 32.0684Z" fill="#333333"/>
<path d="M27.7349 33.802H14.7342V32.9353C14.7342 30.5086 12.8274 28.6017 10.4006 28.6017C7.97371 28.6017 6.06697 30.5085 6.06697 32.9353V33.802H2.60014C1.1267 33.802 0 32.6753 0 31.2019V21.668H27.7349V33.802ZM16.3809 32.0685H26.0014V23.4014H1.73346V31.2019C1.73346 31.7219 2.08012 32.0685 2.60014 32.0685H4.42025C4.85364 29.1218 7.36704 26.8683 10.4006 26.8683C13.4341 26.8683 15.9475 29.1218 16.3809 32.0685Z" fill="#333333"/>
<path d="M12.1339 32.9346C12.1339 33.8881 11.3539 34.6681 10.4005 34.6681C9.44704 34.6681 8.66699 33.8881 8.66699 32.9346C8.66699 31.9812 9.44704 31.2012 10.4005 31.2012C11.3539 31.2012 12.1339 31.9813 12.1339 32.9346Z" fill="#333333"/>
<path d="M43.3361 32.9346C43.3361 33.8881 42.556 34.6681 41.6026 34.6681C40.6492 34.6681 39.8691 33.8881 39.8691 32.9346C39.8691 31.9812 40.6492 31.2012 41.6026 31.2012C42.556 31.2013 43.3361 31.9813 43.3361 32.9346Z" fill="#333333"/>
<path d="M44.8095 14.734H33.5423C32.2422 14.734 31.2021 13.694 31.2021 12.3939V6.93359H36.6625C37.8759 6.93359 38.9159 7.45362 39.696 8.40704L44.8095 14.734ZM32.9356 8.66706V12.3939C32.9356 12.7405 33.1956 13.0006 33.5423 13.0006H41.2561L38.3959 9.447C37.9625 8.92697 37.3559 8.66696 36.6625 8.66696L32.9356 8.66706Z" fill="#333333"/>
</svg>
